<svg id="Слой_1" data-name="Слой 1" xmlns="http://www.w3.org/2000/svg" viewBox="0 0 50 50"><defs><style>.cls-1{fill:#d51744;}.cls-2{fill:#fff;}</style></defs><title>Logo</title><g id="_Группа_" data-name="&lt;Группа&gt;"><circle id="_Эллипс_" data-name="&lt;Эллипс&gt;" class="cls-1" cx="25" cy="25" r="25"/><path id="_Составной_контур_" data-name="&lt;Составной контур&gt;" class="cls-2" d="M39.52,24.49v-2a14.52,14.52,0,0,0-29,0v2a4.43,4.43,0,0,0,0,8.48v5.72A7.46,7.46,0,0,0,16.39,46v2.5a23.64,23.64,0,0,0,3,.88V46.14H30.6v3.22a23.64,23.64,0,0,0,3-.88V46a7.46,7.46,0,0,0,5.91-7.29V33a4.43,4.43,0,0,0,0-8.48ZM25,10.94A11.46,11.46,0,0,1,33.78,15a11.47,11.47,0,0,1-17.56,0A11.46,11.46,0,0,1,25,10.94ZM13.5,22.44a11.36,11.36,0,0,1,1.05-4.77l.06.06h0a14.45,14.45,0,0,0,20.84-.06,11.39,11.39,0,0,1,1,4.77v1.83h-23Zm23,16.25a4.43,4.43,0,0,1-4.43,4.44H17.93a4.43,4.43,0,0,1-4.43-4.44v-5.5H24.75v3a4.43,4.43,0,0,0,8.86,0v-3H36.5Zm3-9.37a2,2,0,0,1-.19.31l0,.06a1.61,1.61,0,0,1-.28.24h0a1.33,1.33,0,0,1-.32.15l-.09,0a1.59,1.59,0,0,1-.38.06H30.58a.77.77,0,0,1,0,.15v5.85a1.42,1.42,0,0,1-2.83,0V30.33s0-.1,0-.15h-16a1.59,1.59,0,0,1-.38-.06l-.09,0a1.33,1.33,0,0,1-.32-.15h0a1.61,1.61,0,0,1-.28-.24l-.05-.06a2,2,0,0,1-.19-.31,1.4,1.4,0,0,1,0-1.18,2,2,0,0,1,.19-.31l.05-.06a1.61,1.61,0,0,1,.28-.24h0a1.87,1.87,0,0,1,.32-.15l.09,0a1.59,1.59,0,0,1,.38-.06H38.2a1.59,1.59,0,0,1,.38.06l.09,0a1.87,1.87,0,0,1,.32.15h0a1.61,1.61,0,0,1,.28.24l0,.06a2,2,0,0,1,.19.31,1.4,1.4,0,0,1,0,1.18Z"/></g></svg>